<?xml version="1.0" standalone="no"?>
<!DOCTYPE svg PUBLIC "-//W3C//DTD SVG 20010904//EN"
 "http://www.w3.org/TR/2001/REC-SVG-20010904/DTD/svg10.dtd">
<svg version="1.0" xmlns="http://www.w3.org/2000/svg"
 width="1000.000000pt" height="1000.000000pt" viewBox="0 0 1000.000000 1000.000000"
 preserveAspectRatio="xMidYMid meet">
<metadata>
Created by potrace 1.14, written by Peter Selinger 2001-2017
</metadata>
<g transform="translate(0.000000,1000.000000) scale(0.100000,-0.100000)"
fill="#000000" stroke="none">
<path d="M2551 9354 c-132 -22 -237 -75 -328 -163 -29 -28 -50 -51 -47 -51 3
0 -4 -9 -15 -21 -30 -32 -82 -144 -98 -213 -15 -64 -20 -176 -10 -238 13 -74
62 -195 93 -226 8 -7 14 -17 14 -21 0 -12 90 -102 130 -131 130 -93 280 -129
445 -107 174 24 353 156 433 317 30 61 52 127 45 134 -4 3 -2 6 3 6 6 0 9 14
8 30 -1 17 1 32 5 34 7 5 6 52 -3 142 -8 75 -43 178 -75 217 -8 9 -11 17 -7
17 4 0 1 7 -6 15 -7 8 -24 29 -38 46 -48 61 -109 114 -147 130 -13 4 -23 14
-23 20 0 7 -3 10 -6 6 -4 -3 -23 2 -43 12 -54 28 -119 43 -236 55 -11 2 -53
-3 -94 -10z"/>
<path d="M6617 8603 c-1 -1 -33 -4 -72 -7 -38 -4 -84 -9 -100 -11 -17 -3 -55
-7 -86 -10 -31 -3 -67 -8 -80 -10 -13 -3 -35 -7 -49 -10 -14 -3 -36 -7 -50
-10 -14 -3 -40 -8 -59 -11 -44 -7 -60 -11 -98 -23 -18 -5 -33 -8 -33 -6 0 2
-18 -2 -40 -10 -22 -8 -41 -14 -43 -13 -3 2 -209 -62 -242 -75 -16 -6 -32 -12
-35 -13 -10 -2 -72 -26 -115 -45 -16 -7 -32 -13 -35 -14 -42 -13 -321 -145
-330 -156 -3 -4 -27 -18 -55 -33 -27 -14 -66 -36 -87 -48 -20 -13 -58 -36 -85
-52 -40 -25 -184 -126 -218 -153 -5 -5 -26 -19 -45 -33 -19 -13 -37 -27 -40
-31 -3 -3 -34 -30 -70 -60 -117 -95 -257 -232 -365 -354 -38 -44 -74 -85 -80
-91 -5 -6 -23 -29 -40 -50 -16 -21 -38 -46 -47 -56 -10 -10 -18 -21 -18 -25 0
-5 -11 -21 -25 -38 -34 -41 -34 -42 -81 -110 -51 -74 -125 -196 -127 -210 -1
-5 18 -10 43 -11 54 -2 237 -14 300 -19 71 -6 261 -35 304 -46 21 -6 40 -8 43
-5 3 3 13 1 22 -4 9 -4 37 -11 61 -15 25 -4 49 -10 55 -13 5 -4 19 -8 30 -9
11 -2 27 -6 35 -9 8 -4 25 -8 37 -10 13 -1 33 -6 45 -10 13 -5 25 -9 28 -9 3
-1 12 -4 20 -7 8 -3 62 -22 120 -41 58 -20 119 -41 135 -48 17 -7 32 -13 35
-14 3 -1 22 -9 44 -18 21 -9 40 -17 42 -17 12 0 237 -113 334 -168 126 -71
281 -170 292 -186 4 -6 8 -7 8 -3 0 4 10 -2 23 -13 12 -12 34 -28 50 -36 15
-8 27 -19 27 -24 0 -6 5 -10 11 -10 6 0 16 -6 24 -12 7 -7 32 -29 56 -48 154
-124 322 -286 437 -420 40 -47 81 -94 91 -105 10 -11 31 -38 47 -60 35 -48 55
-73 72 -91 7 -8 10 -14 5 -14 -4 0 -3 -4 3 -8 6 -4 32 -38 57 -77 26 -38 50
-75 54 -80 5 -6 17 -26 27 -45 11 -19 26 -41 33 -48 7 -7 13 -20 13 -27 0 -8
5 -17 12 -21 6 -4 8 -3 4 4 -3 5 -2 12 3 14 9 3 62 103 60 114 0 4 3 10 9 13
11 7 82 157 128 271 19 47 39 94 44 105 31 67 136 419 145 488 2 15 6 31 9 35
2 4 7 28 11 52 8 52 13 75 15 75 1 0 3 14 5 30 1 17 5 44 9 61 3 17 8 56 11
86 3 30 7 64 9 74 22 112 23 567 1 719 -9 68 -17 142 -18 173 -1 17 -4 32 -7
32 -3 0 -6 8 -6 18 -1 9 -4 33 -7 52 -12 61 -16 84 -22 115 -3 17 -8 41 -11
55 -2 14 -7 32 -10 40 -3 8 -8 26 -10 40 -19 100 -134 433 -201 580 -52 113
-107 225 -112 230 -3 3 -17 27 -31 53 l-25 48 -113 -3 c-63 -2 -114 -4 -115
-5z"/>
<path d="M3667 6824 c-1 -1 -58 -5 -127 -8 -69 -4 -138 -9 -155 -12 -16 -2
-52 -6 -80 -9 -27 -3 -61 -7 -75 -10 -13 -2 -42 -7 -65 -10 -22 -3 -47 -8 -56
-11 -10 -3 -30 -7 -45 -9 -16 -3 -48 -8 -71 -11 -24 -4 -43 -11 -43 -16 0 -5
-4 -7 -8 -4 -10 6 -163 -32 -178 -45 -6 -5 -13 -6 -16 -3 -6 6 -231 -70 -310
-104 -25 -11 -49 -18 -52 -15 -3 4 -6 1 -6 -5 0 -7 -8 -12 -18 -12 -10 0 -29
-8 -42 -17 -14 -10 -26 -16 -28 -14 -4 4 -295 -141 -302 -150 -3 -4 -23 -17
-45 -28 -51 -28 -60 -33 -173 -108 -52 -35 -96 -63 -98 -63 -2 0 -12 -7 -21
-16 -17 -14 -56 -45 -127 -97 -16 -12 -39 -31 -51 -42 -12 -11 -44 -38 -71
-60 -167 -135 -489 -497 -599 -674 -5 -9 -13 -18 -16 -21 -16 -15 -97 -149
-92 -154 4 -3 2 -6 -4 -6 -5 0 -15 -12 -21 -26 -11 -22 -8 -32 15 -72 15 -26
31 -51 35 -57 5 -5 38 -55 74 -109 79 -120 157 -223 212 -281 12 -13 22 -26
22 -29 0 -17 257 -278 371 -377 130 -113 150 -129 159 -129 5 0 10 -3 12 -8
10 -23 382 -272 407 -272 5 0 11 -4 13 -8 4 -11 308 -165 308 -156 0 4 8 0 18
-9 9 -8 19 -15 22 -14 5 2 35 -10 125 -49 17 -7 53 -20 80 -29 28 -9 57 -18
65 -21 8 -3 16 -5 18 -5 1 1 18 -6 38 -14 20 -8 46 -17 58 -20 11 -2 71 -18
131 -34 61 -17 115 -29 122 -27 6 3 13 1 15 -4 2 -5 23 -10 48 -12 25 -2 47
-6 50 -9 3 -4 29 -9 59 -13 30 -4 64 -9 75 -12 12 -2 41 -7 66 -9 25 -2 45 -4
45 -5 0 -4 216 -20 320 -24 81 -2 114 2 97 13 -10 7 -18 21 -89 163 -29 58
-53 110 -53 116 0 5 -4 12 -8 14 -12 5 -139 327 -157 398 -2 8 -14 47 -25 85
-12 39 -23 80 -25 92 -2 12 -8 37 -14 55 -13 42 -31 132 -34 166 0 6 -4 12 -9
12 -5 0 -7 4 -4 8 3 5 -1 44 -9 88 -20 118 -29 197 -40 344 -6 75 -6 382 -1
454 8 102 18 185 32 286 9 58 17 116 19 130 2 14 4 25 5 25 1 0 4 11 6 25 10
51 13 65 14 65 2 0 11 54 12 73 1 6 5 12 9 12 4 0 6 8 4 19 -2 10 3 30 10 44
7 14 11 27 9 30 -2 2 15 62 38 133 23 71 43 134 43 139 0 6 3 13 8 16 4 3 9
14 11 25 2 10 10 33 17 49 7 17 13 32 14 35 23 68 154 341 170 352 5 4 7 8 2
8 -4 0 4 18 19 41 14 22 23 44 19 47 -5 5 -73 10 -78 6z"/>
<path d="M9000 5624 c-152 -23 -299 -112 -398 -239 -35 -45 -81 -151 -98 -223
-30 -129 -8 -289 57 -407 80 -145 216 -255 364 -292 27 -7 118 -23 130 -23 18
-1 130 8 130 10 0 1 7 3 15 5 93 19 196 68 257 122 17 15 40 35 50 44 89 76
164 256 167 399 2 58 -2 89 -20 179 -13 66 -97 204 -160 264 -129 122 -325
186 -494 161z"/>
<path d="M6804 4973 c-15 -27 -51 -83 -80 -126 -30 -43 -54 -81 -54 -84 0 -2
-6 -11 -12 -18 -16 -17 -25 -29 -63 -80 -16 -22 -34 -45 -40 -51 -5 -6 -17
-21 -25 -34 -8 -12 -26 -34 -40 -49 -14 -15 -40 -44 -57 -65 -77 -91 -244
-256 -357 -351 -32 -28 -67 -58 -78 -67 -10 -10 -22 -18 -27 -18 -5 0 -11 -4
-13 -8 -5 -12 -168 -134 -168 -126 0 4 -8 -2 -17 -12 -10 -11 -30 -25 -45 -33
-16 -8 -28 -18 -28 -23 0 -5 -4 -7 -9 -4 -4 3 -16 -3 -26 -14 -10 -11 -22 -20
-27 -20 -5 0 -27 -12 -51 -27 -116 -74 -408 -219 -512 -254 -22 -7 -44 -16
-50 -20 -9 -6 -107 -40 -127 -45 -5 -1 -10 -3 -13 -4 -3 -1 -8 -3 -12 -5 -5
-1 -15 -4 -23 -8 -20 -7 -92 -30 -105 -33 -5 -1 -64 -16 -130 -33 -66 -17
-133 -33 -150 -36 -16 -3 -43 -7 -60 -10 -16 -3 -54 -10 -83 -16 -30 -6 -56
-8 -59 -5 -4 3 -12 1 -20 -5 -7 -6 -13 -8 -13 -5 0 4 -9 2 -20 -4 -14 -8 -20
-8 -20 0 0 6 -3 9 -8 6 -20 -12 -173 -26 -327 -29 -49 -1 -89 -4 -88 -7 10
-27 28 -63 53 -100 16 -25 33 -52 37 -60 3 -8 9 -17 12 -20 4 -3 24 -32 46
-65 22 -32 45 -66 52 -75 187 -244 341 -411 528 -574 50 -43 100 -86 111 -97
12 -10 25 -19 28 -19 4 0 17 -11 30 -25 13 -14 27 -25 31 -25 4 0 25 -16 48
-35 22 -19 42 -33 45 -31 2 2 12 -3 21 -12 10 -10 26 -23 37 -29 10 -7 35 -23
54 -36 53 -35 160 -99 205 -124 73 -39 269 -138 275 -138 3 0 31 -13 64 -28
32 -15 62 -27 67 -27 5 0 17 -4 27 -9 47 -25 219 -86 317 -111 17 -5 55 -15
87 -24 31 -8 67 -18 80 -20 12 -3 42 -10 66 -16 23 -5 58 -13 78 -16 20 -3 46
-8 58 -10 39 -9 111 -18 139 -19 15 0 27 -2 27 -5 0 -3 19 -7 43 -8 23 -2 58
-5 77 -7 19 -3 103 -8 185 -11 l150 -5 30 58 c16 32 37 69 46 83 9 14 18 28
18 32 5 23 46 104 55 110 6 4 7 8 3 8 -5 0 -2 12 7 28 18 33 38 81 64 147 10
28 22 59 27 70 4 11 9 25 11 30 1 6 18 57 38 115 39 117 88 301 105 400 7 36
14 74 16 85 2 11 4 20 5 20 1 0 3 16 5 35 2 19 4 35 5 35 1 0 3 14 5 30 1 17
5 50 9 75 28 195 28 653 1 830 -3 19 -7 55 -9 80 -3 25 -9 70 -15 100 -13 68
-22 119 -26 145 -6 34 -73 289 -83 315 -5 14 -25 70 -43 125 -18 55 -39 111
-46 125 -7 14 -13 29 -13 33 0 11 -17 50 -93 207 -33 69 -61 127 -61 130 -4
16 -59 100 -66 100 -4 0 -20 -21 -36 -47z"/>
<path d="M2530 1898 c-58 -13 -102 -29 -160 -56 -69 -33 -68 -33 -154 -117
-145 -144 -202 -345 -156 -550 19 -84 102 -244 128 -245 6 0 12 -4 12 -10 0
-13 47 -56 95 -88 22 -15 42 -30 45 -33 16 -20 217 -85 228 -74 3 3 11 0 19
-6 9 -8 13 -8 13 0 0 7 8 8 25 1 14 -5 25 -6 25 -2 0 4 21 8 48 9 68 3 94 8
147 32 26 12 54 21 61 21 8 0 14 3 14 8 0 4 16 16 35 26 99 54 225 220 251
331 3 11 8 34 12 50 8 38 7 210 -2 250 -23 101 -90 222 -156 283 -80 74 -122
100 -245 153 -51 21 -222 32 -285 17z"/>
</g>
</svg>
