<svg id="Layer_1" data-name="Layer 1" xmlns="http://www.w3.org/2000/svg" viewBox="0 0 1806.25 657.22"><defs><style>.cls-1{fill:none;}.cls-2{fill:#59cbe8;}.cls-3{fill:#999;}.cls-4{fill:#ff8200;}</style></defs><path class="cls-1" d="M347.4,389.54a177.69,177.69,0,0,0,65.29-65.09,178.45,178.45,0,0,1,0,178.28,178.44,178.44,0,0,1-154.28-89.28v0A177.61,177.61,0,0,0,347.4,389.54Z"/><path class="cls-1" d="M412.84,145.66l0,.06a178.48,178.48,0,0,1-.16,178.68l0,.05,0-.05A178.46,178.46,0,0,0,258.33,235l.2-.33a178.71,178.71,0,0,1,154.31-89Z"/><path class="cls-1" d="M554.38,324.39a29.68,29.68,0,1,1-59.36,0s0,0,0,0a29.68,29.68,0,0,1,59.36,0Z"/><path class="cls-1" d="M217.26,484.79a29.68,29.68,0,1,1-40.55,10.84,29.67,29.67,0,0,1,40.55-10.84S217.26,484.78,217.26,484.79Z"/><path class="cls-1" d="M258.37,413.36l0,.07a178.41,178.41,0,0,1-154.83-89.37l0,0a178.73,178.73,0,0,1,154.77-89A178.49,178.49,0,0,0,258.37,413.36Z"/><path class="cls-2" d="M412.69,324.45a178.45,178.45,0,0,1,0,178.28,178.44,178.44,0,0,1-154.28-89.28v0a178.72,178.72,0,0,0,154.28-89Z"/><path class="cls-1" d="M176.81,152.53a29.68,29.68,0,1,1,40.56,10.88h0A29.67,29.67,0,0,1,176.81,152.53Z"/><path class="cls-3" d="M168.84,258.93A177.69,177.69,0,0,1,258.33,235a178.49,178.49,0,0,0,0,178.33l0,.07a178.41,178.41,0,0,1-154.83-89.37l0,0A177.58,177.58,0,0,1,168.84,258.93Z"/><path class="cls-4" d="M412.84,145.66l0,.06a178.48,178.48,0,0,1-.16,178.68l0,.05,0-.05A178.46,178.46,0,0,0,258.33,235l.2-.33a178.71,178.71,0,0,1,154.31-89Z"/><path class="cls-2" d="M228.24,122.88a29.67,29.67,0,0,1-10.87,40.53h0a29.68,29.68,0,1,1,10.89-40.54Z"/><line class="cls-1" x1="258.55" y1="234.74" x2="258.53" y2="234.7"/><path class="cls-3" d="M554.38,324.39a29.68,29.68,0,1,1-59.36,0s0,0,0,0a29.68,29.68,0,0,1,59.36,0Z"/><line class="cls-1" x1="412.72" y1="324.4" x2="412.66" y2="324.4"/><path class="cls-4" d="M228.1,525.33a29.68,29.68,0,1,1-10.85-40.56s0,0,0,0A29.67,29.67,0,0,1,228.1,525.33Z"/><path d="M768.21,390.66a50.77,50.77,0,0,1-45.11-26.31,55.82,55.82,0,0,1-7-27.88q0-16.56,7.1-28.66a48.83,48.83,0,0,1,19.33-18.68,56.86,56.86,0,0,1,55,1.05q13.28,7.63,19.33,20l-2.1,5.79V188.66h12.36V388.55H814.5V357l2.63,5.79a51.1,51.1,0,0,1-19.72,20.12A56.45,56.45,0,0,1,768.21,390.66Zm3.16-10.79a44,44,0,0,0,21.3-5.13,41.7,41.7,0,0,0,15.26-13.94A40.82,40.82,0,0,0,814.5,341V327.8a39.7,39.7,0,0,0-8.15-17.89,46.77,46.77,0,0,0-15.26-12.49,42.41,42.41,0,0,0-19.72-4.61,43,43,0,0,0-21.57,5.53,41.81,41.81,0,0,0-15.52,15.25,43.4,43.4,0,0,0-5.78,22.62,42.54,42.54,0,0,0,5.78,22A44.23,44.23,0,0,0,749.93,374,40.88,40.88,0,0,0,771.37,379.87Z"/><path d="M910,392.5,857.9,285.71h14.46l42.88,93.37-7.63-.26,41.29-93.11h13.68l-51,106.79Z"/><path d="M990.72,247.84a7.85,7.85,0,0,1,2.89-6.18,9.46,9.46,0,0,1,6.32-2.5,8.84,8.84,0,0,1,6.31,2.5,8.21,8.21,0,0,1,2.63,6.18,8.49,8.49,0,0,1-2.63,6.44,8.84,8.84,0,0,1-6.31,2.5,9.2,9.2,0,0,1-6.32-2.63A8.21,8.21,0,0,1,990.72,247.84Zm2.63,37.87h12.36V388.55H993.35Z"/><path d="M1098.29,438.79a67.82,67.82,0,0,1-16.57-2,54.52,54.52,0,0,1-15.52-6.7,102.81,102.81,0,0,1-15.78-12.36l7.37-8.42q11.3,10.79,21,14.6a51.7,51.7,0,0,0,18.93,3.81q16,0,25.52-5.13A31.21,31.21,0,0,0,1137,408.94a45.08,45.08,0,0,0,4.47-19.07l.27-33.41,2.89,3.16q-5.26,13.68-18.8,22.36a55.67,55.67,0,0,1-30.65,8.68,50.06,50.06,0,0,1-26.43-7.24A54.15,54.15,0,0,1,1049.63,364a53.26,53.26,0,0,1-7.1-27.22q0-16,7.37-28.14a52.72,52.72,0,0,1,20-19.07,56.62,56.62,0,0,1,27.87-7,53.08,53.08,0,0,1,27,7.36q12.77,7.36,18.55,19.46l-1.58,5.79,1.31-29.46h11V390.13a52.1,52.1,0,0,1-5.65,23.8q-5.67,11.18-17.89,18T1098.29,438.79Zm-43.4-102.32a42.6,42.6,0,0,0,5.79,22,44.23,44.23,0,0,0,15.65,15.78,41.89,41.89,0,0,0,22,5.92,43.45,43.45,0,0,0,21-5.13,44.58,44.58,0,0,0,15.52-13.81,37.42,37.42,0,0,0,6.84-18.68V327.27a41.09,41.09,0,0,0-8.29-17.62,44.82,44.82,0,0,0-15.25-12.1,46.4,46.4,0,0,0-41.82,1.05,41.39,41.39,0,0,0-15.65,15.26A43.37,43.37,0,0,0,1054.89,336.47Z"/><path d="M1233.22,391.45q-14.48,0-23.15-8.55t-9.21-22.23v-75h12.37V357q.52,10,6.44,16.57t17.75,7.1a35.38,35.38,0,0,0,18.68-5.26,40.85,40.85,0,0,0,14.07-14.33,39.68,39.68,0,0,0,5.39-20.65V285.71h12.36V388.55h-11l-1.32-32.35,1.84,7.1a35.22,35.22,0,0,1-9.34,14.34,49,49,0,0,1-15.78,10.12A50.11,50.11,0,0,1,1233.22,391.45Z"/><path d="M1345.52,285.71l1.31,32.35-1.57-6.31a38.72,38.72,0,0,1,17-21.17,51.58,51.58,0,0,1,27.75-7.76q14.46,0,23.41,8.55t9.2,22.22v75H1410V317q-.27-10-6.31-16.57T1386,293.6a38.74,38.74,0,0,0-19.2,5,38.32,38.32,0,0,0-14.33,13.94,39.4,39.4,0,0,0-5.39,20.78v55.23h-12.37V285.71Z"/><path d="M1466.77,247.84a7.85,7.85,0,0,1,2.89-6.18,9.44,9.44,0,0,1,6.31-2.5,8.8,8.8,0,0,1,6.31,2.5,8.17,8.17,0,0,1,2.63,6.18,8.45,8.45,0,0,1-2.63,6.44,8.8,8.8,0,0,1-6.31,2.5,9.17,9.17,0,0,1-6.31-2.63A8.21,8.21,0,0,1,1466.77,247.84Zm2.63,37.87h12.36V388.55H1469.4Z"/><path d="M1538.83,240.47h12.62V287h31.83v10h-31.83v91.53h-12.62V297H1517V287h21.83Z"/><path d="M1646.67,389.6,1598,285.71H1612L1656.4,383ZM1623.52,438l67.07-152.29h12.1L1636.41,438Z"/></svg>