<svg width="29" height="29" viewBox="0 0 29 29" fill="none" xmlns="http://www.w3.org/2000/svg">
<path d="M24.7094 24.7098H20.4125V17.9805C20.4125 16.3759 20.3838 14.3102 18.1777 14.3102C15.9397 14.3102 15.5972 16.0586 15.5972 17.8637V24.7093H11.3005V10.8713H15.4254V12.7625H15.4832C15.896 12.0566 16.4925 11.4759 17.2092 11.0823C17.9259 10.6886 18.736 10.4968 19.5531 10.5271C23.9082 10.5271 24.7112 13.3917 24.7112 17.1185L24.7094 24.7098ZM6.45205 8.97988C5.07489 8.9801 3.95827 7.86383 3.95805 6.48667C3.95782 5.10951 5.07398 3.9929 6.45114 3.99267C7.8283 3.99233 8.94491 5.1086 8.94514 6.48576C8.94526 7.1471 8.68267 7.78141 8.21513 8.24914C7.74758 8.71687 7.11339 8.97973 6.45205 8.97988ZM8.60054 24.7099H4.29914V10.8713H8.60043V24.7098L8.60054 24.7099ZM26.8515 0.00211064H2.14C0.972066 -0.01103 0.0142734 0.92456 0 2.09249V26.9071C0.0138203 28.0756 0.9715 29.0121 2.13988 28.9998H26.8515C28.0224 29.0143 28.9838 28.0778 29 26.9071V2.09056C28.9833 0.920368 28.0218 -0.0151081 26.8515 0.000184863" fill="white"/>
</svg>
