<svg width="289" height="105" viewBox="0 0 289 105" fill="none" xmlns="http://www.w3.org/2000/svg">
<path d="M66.0304 51.8354C68.5313 56.1663 69.8478 61.0776 69.8478 66.0768C69.8478 71.076 68.5313 75.9873 66.0304 80.3182C61.0247 80.3101 56.1091 78.988 51.7765 76.4845C47.444 73.981 43.8467 70.3841 41.3456 66.0544C46.346 66.0464 51.2569 64.7292 55.5883 62.2342C59.9197 59.7392 63.5201 56.1537 66.0304 51.8354Z" fill="white"/>
<path d="M27.0144 41.3677C31.3647 38.8516 36.3054 37.5324 41.3328 37.5445C38.831 41.8765 37.5141 46.7892 37.5141 51.7899C37.5141 56.7905 38.831 61.7032 41.3328 66.0352V66.0464C36.3107 66.0528 31.3757 64.736 27.0262 62.2291C22.6766 59.7222 19.0664 56.1138 16.56 51.7683C19.0666 47.4425 22.673 43.8546 27.0144 41.3677Z" fill="white"/>
<path d="M66.0544 23.2712V23.2808C68.5628 27.6216 69.8812 32.5459 69.8767 37.5576C69.8722 42.5692 68.545 47.4911 66.0288 51.8274V51.8354V51.8274C63.5288 47.4928 59.9308 43.8912 55.596 41.3841C51.2612 38.8771 46.3422 37.5529 41.3328 37.5445L41.3648 37.4918C43.8753 33.1727 47.4765 29.5867 51.8088 27.0917C56.1412 24.5966 61.0531 23.2799 66.0544 23.2728V23.2712Z" fill="white"/>
<path d="M36.5184 19.6318C36.8301 20.171 37.0323 20.7662 37.1135 21.3835C37.1948 22.0007 37.1535 22.6279 36.992 23.2292C36.8305 23.8304 36.5519 24.3941 36.1723 24.8879C35.7926 25.3817 35.3192 25.796 34.7792 26.1071C33.9655 26.5754 33.031 26.7923 32.0939 26.7303C31.1567 26.6683 30.2591 26.3303 29.5143 25.7589C28.7696 25.1875 28.2113 24.4084 27.91 23.5202C27.6086 22.6319 27.5779 21.6744 27.8215 20.7687C28.0652 19.863 28.5723 19.0498 29.2788 18.4319C29.9853 17.814 30.8594 17.4191 31.7907 17.2973C32.7219 17.1754 33.6684 17.332 34.5105 17.7473C35.3526 18.1625 36.0525 18.8178 36.5216 19.6302L36.5184 19.6318Z" fill="white"/>
<path d="M88.7008 51.8258C88.7008 53.0834 88.2005 54.2895 87.3099 55.1787C86.4193 56.068 85.2115 56.5676 83.952 56.5676C82.6925 56.5676 81.4847 56.068 80.5941 55.1787C79.7035 54.2895 79.2032 53.0834 79.2032 51.8258C79.2032 51.8258 79.2032 51.8258 79.2032 51.8258C79.2032 50.5682 79.7035 49.3621 80.5941 48.4728C81.4847 47.5836 82.6925 47.084 83.952 47.084C85.2115 47.084 86.4193 47.5836 87.3099 48.4728C88.2005 49.3621 88.7008 50.5682 88.7008 51.8258Z" fill="white"/>
<path d="M36.496 83.9287C36.0259 84.7405 35.3253 85.3948 34.4827 85.809C33.6402 86.2232 32.6936 86.3787 31.7626 86.2558C30.8316 86.1329 29.958 85.7371 29.2522 85.1184C28.5465 84.4998 28.0403 83.6861 27.7976 82.7803C27.5549 81.8744 27.5867 80.917 27.8888 80.0292C28.191 79.1413 28.75 78.3629 29.4952 77.7922C30.2404 77.2216 31.1383 76.8844 32.0754 76.8232C33.0125 76.7621 33.9468 76.9797 34.76 77.4487C35.3004 77.7601 35.774 78.1748 36.1538 78.669C36.5335 79.1633 36.812 79.7275 36.9732 80.3294C37.1345 80.9312 37.1753 81.5589 37.0934 82.1765C37.0115 82.7941 36.8085 83.3895 36.496 83.9287Z" fill="white"/>
<path d="M122.914 62.4134C121.442 62.4313 119.993 62.0497 118.722 61.3094C117.451 60.569 116.405 59.4978 115.696 58.21C114.94 56.8484 114.554 55.3127 114.576 53.7558C114.576 51.992 114.955 50.4657 115.712 49.177C116.443 47.9128 117.515 46.8789 118.805 46.1926C120.166 45.4749 121.687 45.1138 123.226 45.1431C124.766 45.1724 126.272 45.5913 127.605 46.3603C129.021 47.173 130.052 48.2381 130.698 49.5556L130.362 50.4807V30.1411H132.339V62.0763H130.32V57.0358L130.741 57.9608C130.012 59.3063 128.918 60.4201 127.586 61.1752C126.17 62.0041 124.555 62.4322 122.914 62.4134ZM123.419 60.6896C124.606 60.7077 125.779 60.4257 126.827 59.87C127.815 59.344 128.655 58.5781 129.269 57.6429C129.888 56.6971 130.25 55.6071 130.32 54.4795V52.3707C130.132 51.3238 129.684 50.341 129.016 49.5125C128.353 48.6816 127.521 48.0014 126.574 47.517C125.598 47.0207 124.515 46.768 123.419 46.7805C122.211 46.7673 121.021 47.072 119.968 47.664C118.939 48.2431 118.083 49.0837 117.485 50.1004C116.852 51.1981 116.532 52.4479 116.56 53.7143C116.543 54.948 116.863 56.163 117.485 57.2291C118.091 58.2691 118.953 59.1374 119.989 59.7517C121.024 60.3747 122.211 60.6993 123.419 60.6896Z" fill="white"/>
<path d="M145.6 62.7073L137.264 45.6461H139.578L146.438 60.5633L145.218 60.5217L151.824 45.6461H154.013L145.853 62.7073H145.6Z" fill="white"/>
<path d="M158.515 39.5959C158.513 39.4072 158.553 39.2204 158.633 39.0495C158.713 38.8785 158.831 38.7278 158.978 38.6086C159.253 38.355 159.614 38.2126 159.989 38.2092C160.175 38.2061 160.36 38.2397 160.534 38.3083C160.707 38.3768 160.865 38.4789 160.998 38.6086C161.134 38.7342 161.242 38.8872 161.315 39.0573C161.387 39.2275 161.423 39.411 161.419 39.5959C161.426 39.7874 161.392 39.978 161.319 40.1554C161.247 40.3327 161.137 40.4927 160.998 40.6248C160.865 40.7545 160.707 40.8566 160.534 40.9251C160.36 40.9937 160.175 41.0273 159.989 41.0242C159.61 41.0193 159.248 40.8688 158.978 40.604C158.831 40.4799 158.714 40.3253 158.634 40.1512C158.555 39.977 158.514 39.7875 158.515 39.5959ZM158.936 45.6462H160.914V62.0763H158.936V45.6462Z" fill="white"/>
<path d="M175.726 70.1027C174.833 70.1056 173.942 69.9983 173.075 69.7832C172.197 69.5575 171.359 69.1963 170.592 68.7128C169.688 68.1382 168.842 67.4769 168.067 66.7381L169.246 65.3929C170.452 66.5421 171.572 67.3196 172.606 67.7254C173.569 68.1165 174.596 68.323 175.635 68.3341C177.342 68.3341 178.703 68.0609 179.718 67.5146C180.665 67.0394 181.437 66.2756 181.92 65.3338C182.379 64.3828 182.623 63.3427 182.635 62.2871L182.678 56.9494L183.141 57.4542C182.58 58.9113 181.577 60.102 180.133 61.0265C178.668 61.9559 176.964 62.4379 175.229 62.4133C173.739 62.428 172.274 62.0274 171 61.2566C169.732 60.4997 168.679 59.4317 167.941 58.154C167.179 56.8323 166.786 55.3303 166.805 53.8052C166.805 52.1011 167.198 50.6025 167.984 49.3095C168.76 48.0279 169.865 46.9762 171.184 46.2628C172.549 45.5133 174.085 45.1281 175.643 45.1444C177.163 45.1434 178.654 45.5495 179.963 46.3203C181.325 47.1042 182.315 48.1405 182.931 49.4293L182.678 50.3543L182.888 45.6477H184.648V62.3286C184.653 63.6498 184.343 64.9531 183.744 66.131C183.139 67.3218 182.185 68.2804 180.882 69.0067C179.578 69.7331 177.86 70.0985 175.726 70.1027ZM168.782 53.7557C168.766 54.9895 169.087 56.2044 169.709 57.2705C170.315 58.31 171.177 59.1777 172.213 59.7916C173.276 60.4255 174.495 60.7529 175.733 60.7374C176.904 60.7512 178.06 60.4693 179.093 59.9178C180.083 59.3879 180.934 58.6319 181.576 57.7114C182.204 56.8335 182.582 55.8022 182.67 54.7271V52.2859C182.461 51.2549 182.006 50.2895 181.344 49.4708C180.682 48.6557 179.849 47.9958 178.904 47.5377C177.853 47.0405 176.701 46.7967 175.538 46.8259C174.376 46.855 173.237 47.1563 172.213 47.7054C171.174 48.2794 170.31 49.1214 169.709 50.1434C169.075 51.2404 168.755 52.4897 168.782 53.7557Z" fill="white"/>
<path d="M197.315 62.5396C195.771 62.5396 194.536 62.0843 193.611 61.1736C192.686 60.263 192.195 59.0791 192.138 57.6221V45.6398H194.117V57.0357C194.172 58.1008 194.516 58.9832 195.147 59.683C195.779 60.3828 196.725 60.7609 197.987 60.8173C199.042 60.8209 200.078 60.5298 200.976 59.977C201.906 59.4128 202.679 58.6259 203.227 57.6876C203.811 56.6871 204.109 55.5461 204.09 54.3884V45.6462H206.067V62.0763H204.307L204.096 56.9079L204.39 58.0422C204.088 58.917 203.575 59.7039 202.896 60.3333C202.166 61.0294 201.309 61.5784 200.371 61.9501C199.401 62.344 198.363 62.5443 197.315 62.5396Z" fill="white"/>
<path d="M215.283 45.6461L215.493 50.8145L215.242 49.8064C215.71 48.3881 216.676 47.1868 217.962 46.4242C219.294 45.5981 220.834 45.1681 222.402 45.1844C223.944 45.1844 225.193 45.6397 226.147 46.5504C227.102 47.461 227.593 48.6444 227.619 50.1003V62.0826H225.6V50.6451C225.571 49.58 225.235 48.6976 224.59 47.9978C223.946 47.2981 223.003 46.9344 221.76 46.9067C220.684 46.9022 219.625 47.1775 218.688 47.7055C217.74 48.2322 216.949 49.0007 216.395 49.9326C215.806 50.9382 215.507 52.0875 215.533 53.2525V62.0762H213.554V45.6461H215.283Z" fill="white"/>
<path d="M234.683 39.5959C234.681 39.4071 234.721 39.2204 234.801 39.0494C234.881 38.8785 234.999 38.7277 235.146 38.6085C235.421 38.355 235.781 38.2127 236.155 38.2091C236.342 38.2056 236.527 38.2391 236.7 38.3077C236.873 38.3763 237.031 38.4785 237.165 38.6085C237.301 38.7339 237.409 38.8868 237.481 39.057C237.554 39.2272 237.59 39.4109 237.586 39.5959C237.593 39.7874 237.559 39.9781 237.486 40.1555C237.414 40.3329 237.304 40.4929 237.165 40.6247C237.031 40.7547 236.873 40.857 236.7 40.9255C236.527 40.9941 236.342 41.0276 236.155 41.0241C235.777 41.0193 235.415 40.8687 235.146 40.604C234.999 40.4798 234.882 40.3253 234.802 40.1511C234.723 39.9769 234.682 39.7874 234.683 39.5959ZM235.104 45.6461H237.082V62.0762H235.104V45.6461Z" fill="white"/>
<path d="M246.213 38.4185H248.232V45.8523H253.325V47.4499H248.232V62.0731H246.213V47.4499H242.72V45.8523H246.213V38.4185Z" fill="white"/>
<path d="M263.467 62.244L255.68 45.6461H257.92L265.024 61.1895L263.467 62.244ZM259.763 69.9766L270.494 45.6461H272.43L261.826 69.9766H259.763Z" fill="white"/>
</svg>
