<svg width="228" height="86" viewBox="0 0 228 86" fill="none" xmlns="http://www.w3.org/2000/svg">
<path d="M0.98645 22.6042H53.822V73.4318H0.98645V22.6042Z" fill="#605E5E"/>
<path d="M23.0373 43.8109H53.8219V73.4318H23.0373V43.8109Z" fill="white" fill-opacity="0.5"/>
<path d="M44.1188 22.6058H31.2298V23.67C31.2298 39.1101 18.1702 51.6784 2.13264 51.6784H0.946106V64.0209H2.13109C9.43484 64.0363 16.6192 62.1934 22.9954 58.6659V43.8109H38.5428C42.2141 37.7218 44.1513 30.762 44.1498 23.67V22.6042" fill="white" fill-opacity="0.8"/>
<path d="M38.5428 43.8109H23.0373V58.7043C29.4368 55.1752 34.7847 50.0382 38.5428 43.8109Z" fill="#E6F2FC"/>
<path d="M53.8204 31.966H52.3904C29.2553 31.9368 10.4229 50.0567 10.4229 72.2785V73.3934H23.2544V72.2785C23.2544 56.8476 36.3016 44.2901 52.3407 44.2901H53.7723L53.822 31.966H53.8204Z" fill="white"/>
<path d="M17.6878 60.5993L17.953 61.1767C17.5482 61.3487 17.1899 61.6128 16.9076 61.9492C16.6284 62.2916 16.4315 62.6925 16.3337 63.1225C16.2019 63.5985 16.2019 64.1022 16.3337 64.5783C16.4532 65.0421 16.7044 65.4629 17.055 65.79C17.4086 66.1217 17.846 66.3536 18.3191 66.4657C19.0325 66.6531 19.791 66.5348 20.4114 66.1432C21.0752 65.7623 21.5483 65.1235 21.7142 64.3833C21.9345 63.5448 21.7561 62.6525 21.2303 61.9584L21.7142 61.5284C22.0337 61.9307 22.2509 62.4037 22.3455 62.9075C22.4432 63.4419 22.4231 63.9932 22.2866 64.52C22.0927 65.5028 21.4614 66.3459 20.5696 66.8158C19.8235 67.186 18.9674 67.2735 18.1609 67.0616C17.2892 66.8665 16.5369 66.3213 16.0887 65.5566C15.6234 64.7672 15.4993 63.8258 15.7428 62.9458C15.87 62.4283 16.1089 61.9461 16.4439 61.5284C16.7727 61.1214 17.2008 60.802 17.6878 60.6008V60.5993ZM18.9302 54.63L25.9982 55.02L25.6616 55.665L23.3133 55.5683L22.0105 57.9717L23.4017 59.8299L23.0667 60.4534L18.8526 54.7666L18.9302 54.6284V54.63ZM20.095 55.3333L21.615 57.3758L22.6526 55.4208L20.095 55.3333ZM22.5239 49.4884L23.4017 48.57C23.7197 48.2137 24.0687 47.8866 24.4487 47.5933C25.0846 47.1403 25.9578 47.2109 26.5115 47.7592C26.7535 47.9742 26.9272 48.2506 27.0141 48.5608C27.0916 48.8649 27.0746 49.1843 26.9644 49.4792C26.8047 49.8723 26.5612 50.2286 26.2541 50.525L30.0044 50.8859L29.4523 51.4633L25.7112 51.1009L25.4646 51.365L27.636 53.3783L27.1924 53.8483L22.5239 49.4884ZM23.4219 49.4884L25.0009 50.9642L25.7702 50.1733C25.9982 49.9506 26.1889 49.6942 26.3332 49.4116C26.3999 49.2119 26.3999 48.9954 26.3332 48.7958C26.2277 48.3811 25.888 48.0694 25.4646 47.9941C25.2676 47.9557 25.0613 47.9834 24.883 48.0709C24.6053 48.226 24.3587 48.4287 24.1524 48.6683L23.4219 49.4884ZM31.2391 49.3809L27.636 44.1241L27.7446 44.0458L34.0324 45.7075L31.2778 41.6808L31.8021 41.3291L35.3942 46.5859L35.2764 46.6642L29.0475 45.0225L31.7726 49.0108L31.2391 49.3809ZM38.3846 38.7092C39.2377 38.3836 40.1853 38.4174 41.0105 38.8075C42.6794 39.6199 43.3867 41.6056 42.5987 43.2733C41.772 44.9288 39.7635 45.6307 38.0698 44.8567C37.257 44.4881 36.6382 43.8016 36.3621 42.9616C36.1558 42.4041 36.1046 41.8037 36.2132 41.2216C36.314 40.6442 36.5699 40.1036 36.953 39.6583C37.3408 39.2252 37.834 38.8981 38.3846 38.7092ZM38.6126 39.2774C37.7037 39.6061 37.0399 40.3862 36.8646 41.3291C36.7762 41.8052 36.8181 42.2982 36.984 42.7558C37.2167 43.4361 37.7192 43.9951 38.3753 44.3069C39.0298 44.6171 39.7852 44.654 40.4676 44.4067C40.9283 44.2516 41.3377 43.9752 41.6526 43.6066C41.9706 43.2534 42.1831 42.8203 42.2637 42.355C42.3444 41.8789 42.2978 41.3906 42.1257 40.9375C41.9737 40.4829 41.7007 40.0775 41.3346 39.7658C40.5886 39.1423 39.5634 38.9565 38.6421 39.2759H38.6111L38.6126 39.2774ZM43.9807 37.8016L43.8721 37.1858L47.3759 36.5884L47.4844 37.2042L46.073 37.4484L47.061 43.0875L46.4189 43.195L45.4324 37.5559L43.9807 37.8016Z" fill="#008FD0"/>
<path d="M107.931 11.2968C114.765 7.37762 122.526 5.31822 130.424 5.3259V0.938367C121.76 0.932224 113.246 3.19433 105.749 7.49433C98.237 11.8097 91.9972 17.9955 87.6482 25.4376C83.3022 32.8628 81.0176 41.2908 81.0238 49.8708H85.4147C85.4302 33.9547 94.0105 19.2548 107.931 11.2968Z" fill="white"/>
<path d="M130.435 8.91333C115.647 8.91333 101.984 16.724 94.5906 29.4028C87.1984 42.0832 87.2 57.706 94.5952 70.3834C98.2401 76.6061 103.462 81.7768 109.746 85.3842L116.063 74.5574C104.857 68.0844 99.4096 54.9878 102.766 42.5793C106.122 30.1707 117.451 21.5215 130.424 21.4617C135.471 21.4586 140.428 22.7762 144.796 25.2825L151.111 14.4634C144.814 10.8483 137.664 8.95019 130.385 8.96094" fill="white"/>
<path d="M130.435 70.4325C126.793 70.4387 123.213 69.4911 120.06 67.6867C116.911 65.8745 114.296 63.2807 112.471 60.1617C110.644 57.0411 109.684 53.4967 109.687 49.8893C109.687 42.5486 113.646 35.7669 120.071 32.1042L118.096 28.7118C114.347 30.8664 111.23 33.9516 109.055 37.665C106.879 41.3784 105.736 45.597 105.739 49.8893C105.735 54.1831 106.879 58.4018 109.055 62.1151C113.46 69.6877 121.619 74.3548 130.444 74.3517C134.781 74.3532 139.04 73.2199 142.79 71.0668L140.817 67.6759C137.669 69.485 134.093 70.4356 130.453 70.4325" fill="white"/>
<path d="M158.761 50.8276H143.769C143.769 53.6917 145.298 55.2351 148.229 55.2351C149.628 55.3487 150.962 54.6362 151.636 53.4183H158.485C157.349 58.1084 152.848 60.2584 148.27 60.2584C141.616 60.2584 136.653 56.545 136.653 49.6942C136.653 43.0692 141.231 39.0824 147.766 39.0824C154.676 39.0824 158.762 43.3425 158.762 50.115V50.8276H158.761ZM152.149 46.7626C151.651 44.9074 149.956 43.6174 148.017 43.6174C146.08 43.6174 144.384 44.9074 143.887 46.7626H152.149ZM171.04 59.575H163.923V45.5217H161.613V39.7059H163.923V33.7458H171.04V39.7059H175.067V45.5217H171.04V59.575ZM186.091 32.8567C186.098 34.8377 184.478 36.4472 182.479 36.4518C180.478 36.4579 178.853 34.8562 178.847 32.8751C178.842 30.894 180.46 29.2846 182.46 29.2784C184.463 29.2846 186.087 30.8909 186.091 32.8751M186.023 59.575H178.906V39.7167H186.023V59.5735V59.575ZM199.545 42.1892H199.623C201.065 40.1513 203.449 38.9719 205.96 39.0517C208.794 38.9028 211.46 40.3817 212.811 42.8542C214.208 40.4492 216.82 38.9918 219.62 39.0517C224.704 39.0517 226.471 42.3458 226.471 46.87V59.575H219.344V50.0843C219.344 48.0326 219.423 44.6709 216.383 44.6709C213.096 44.6709 212.978 47.73 212.978 50.0858V59.575H205.851V50.0843C205.851 47.8759 205.851 44.5143 202.683 44.5143C199.516 44.5143 199.516 47.8775 199.516 50.0858V59.575H192.468V39.7167H199.584L199.545 42.1892ZM126.189 47.2125C126.633 46.46 127.266 45.8334 128.026 45.3942C129.574 44.5097 131.482 44.5097 133.029 45.3942L136.257 39.8733C131.768 37.301 126.095 38.0382 122.427 41.6701C118.76 45.3006 118.016 50.9182 120.612 55.3625C121.623 57.0825 123.069 58.5108 124.808 59.5059C128.348 61.5392 132.718 61.5392 136.257 59.5059L133.031 53.985C131.482 54.8696 129.574 54.8696 128.026 53.985C127.266 53.5458 126.633 52.9192 126.189 52.1667C125.296 50.6341 125.296 48.7452 126.189 47.2125Z" fill="white"/>
</svg>
