<svg width="206" height="76" viewBox="0 0 206 76" fill="none" xmlns="http://www.w3.org/2000/svg">
<path d="M46.9157 37.0437C48.6926 40.1387 49.628 43.6485 49.628 47.2212C49.628 50.7938 48.6926 54.3037 46.9157 57.3987C43.359 57.3929 39.8664 56.4481 36.7881 54.659C33.7097 52.8699 31.1538 50.2993 29.3767 47.2052C32.9296 47.1995 36.4189 46.2581 39.4964 44.4751C42.5739 42.6921 45.1321 40.1297 46.9157 37.0437Z" fill="#59CBE8"/>
<path d="M19.1942 29.5631C22.2852 27.765 25.7956 26.8222 29.3676 26.8309C27.5901 29.9267 26.6544 33.4375 26.6544 37.0112C26.6544 40.5849 27.5901 44.0957 29.3676 47.1915V47.1995C25.7993 47.2041 22.293 46.2631 19.2026 44.4716C16.1121 42.68 13.547 40.1013 11.7662 36.9958C13.5471 33.9044 16.1096 31.3403 19.1942 29.5631Z" fill="#999999"/>
<path d="M46.9327 16.6306V16.6375C48.715 19.7396 49.6517 23.2587 49.6485 26.8402C49.6453 30.4218 48.7023 33.9392 46.9145 37.0381V37.0438V37.0381C45.1383 33.9404 42.5818 31.3665 39.5019 29.5749C36.4219 27.7832 32.9269 26.8369 29.3676 26.8309L29.3904 26.7933C31.1741 23.7066 33.7328 21.1439 36.811 19.3609C39.8892 17.5778 43.3792 16.6368 46.9327 16.6318V16.6306Z" fill="#FF8200"/>
<path d="M25.9469 14.0296C26.1683 14.4149 26.312 14.8403 26.3697 15.2814C26.4275 15.7225 26.3981 16.1707 26.2834 16.6004C26.1686 17.0301 25.9707 17.4329 25.701 17.7858C25.4312 18.1387 25.0949 18.4348 24.7112 18.6571C24.133 18.9918 23.4691 19.1468 22.8032 19.1025C22.1374 19.0582 21.4995 18.8166 20.9704 18.4083C20.4412 17.9999 20.0445 17.4432 19.8305 16.8084C19.6164 16.1736 19.5945 15.4893 19.7676 14.8421C19.9407 14.1948 20.3011 13.6137 20.803 13.1721C21.305 12.7305 21.9261 12.4483 22.5878 12.3613C23.2494 12.2742 23.9219 12.3861 24.5203 12.6828C25.1186 12.9796 25.6158 13.4479 25.9492 14.0285L25.9469 14.0296Z" fill="#59CBE8"/>
<path d="M63.0233 37.0369C63.0233 37.9356 62.6679 38.7975 62.0351 39.433C61.4023 40.0685 60.5441 40.4256 59.6492 40.4256C58.7544 40.4256 57.8962 40.0685 57.2634 39.433C56.6306 38.7975 56.2751 37.9356 56.2751 37.0369C56.2751 37.0369 56.2751 37.0369 56.2751 37.0369C56.2751 36.1381 56.6306 35.2762 57.2634 34.6407C57.8962 34.0052 58.7544 33.6482 59.6492 33.6482C60.5441 33.6482 61.4023 34.0052 62.0351 34.6407C62.6679 35.2762 63.0233 36.1381 63.0233 37.0369Z" fill="#999999"/>
<path d="M25.931 59.9792C25.597 60.5593 25.0992 61.0269 24.5006 61.3229C23.9019 61.6189 23.2294 61.73 22.5679 61.6422C21.9064 61.5543 21.2857 61.2715 20.7842 60.8294C20.2828 60.3873 19.9231 59.8058 19.7507 59.1584C19.5782 58.5111 19.6008 57.8269 19.8155 57.1924C20.0302 56.5579 20.4274 56.0016 20.9568 55.5938C21.4863 55.1859 22.1243 54.945 22.7901 54.9013C23.456 54.8576 24.1197 55.0131 24.6976 55.3482C25.0815 55.5708 25.418 55.8671 25.6879 56.2204C25.9577 56.5736 26.1555 56.9768 26.2701 57.4069C26.3847 57.837 26.4137 58.2856 26.3555 58.7269C26.2973 59.1683 26.1531 59.5938 25.931 59.9792Z" fill="#FF8200"/>
<path d="M87.3321 44.6032C86.2866 44.616 85.2572 44.3433 84.354 43.8142C83.4507 43.2851 82.7076 42.5196 82.2039 41.5993C81.6665 40.6262 81.3921 39.5287 81.4081 38.4161C81.4081 37.1556 81.6772 36.0649 82.2153 35.1439C82.7347 34.2405 83.496 33.5016 84.4128 33.0111C85.3799 32.4982 86.4609 32.2401 87.5544 32.2611C88.648 32.2821 89.7183 32.5814 90.6653 33.131C91.6718 33.7118 92.4043 34.4729 92.8628 35.4145L92.6241 36.0755V21.54H94.0292V44.3623H92.5945V40.7601L92.8935 41.4212C92.3753 42.3827 91.5985 43.1787 90.6517 43.7184C89.6457 44.3107 88.4981 44.6166 87.3321 44.6032ZM87.6914 43.3713C88.5348 43.3842 89.3677 43.1827 90.1128 42.7856C90.8149 42.4096 91.4115 41.8623 91.8476 41.194C92.2873 40.5181 92.5447 39.7391 92.5945 38.9333V37.4262C92.4611 36.6781 92.1424 35.9757 91.668 35.3836C91.1972 34.7899 90.6058 34.3037 89.9332 33.9576C89.2392 33.6029 88.47 33.4223 87.6914 33.4313C86.833 33.4218 85.9872 33.6396 85.2392 34.0627C84.5084 34.4765 83.8997 35.0772 83.4749 35.8038C83.0251 36.5882 82.7978 37.4814 82.8178 38.3864C82.8057 39.2681 83.0329 40.1364 83.4749 40.8983C83.9054 41.6415 84.5178 42.2621 85.254 42.7011C85.9892 43.1463 86.8329 43.3783 87.6914 43.3713Z" fill="white"/>
<path d="M103.451 44.8133L97.5283 32.6206H99.1721L104.047 43.281L103.179 43.2514L107.873 32.6206H109.429L103.631 44.8133H103.451Z" fill="white"/>
<path d="M112.628 28.2968C112.626 28.162 112.655 28.0285 112.712 27.9063C112.768 27.7841 112.852 27.6764 112.956 27.5912C113.152 27.41 113.408 27.3083 113.675 27.3058C113.807 27.3036 113.939 27.3276 114.062 27.3766C114.185 27.4256 114.297 27.4985 114.392 27.5912C114.489 27.681 114.565 27.7903 114.617 27.9119C114.668 28.0335 114.693 28.1647 114.691 28.2968C114.696 28.4337 114.671 28.5699 114.62 28.6966C114.568 28.8234 114.491 28.9377 114.392 29.0321C114.297 29.1248 114.185 29.1977 114.062 29.2467C113.939 29.2957 113.807 29.3198 113.675 29.3176C113.406 29.314 113.148 29.2065 112.956 29.0173C112.852 28.9286 112.769 28.8181 112.712 28.6936C112.656 28.5692 112.627 28.4337 112.628 28.2968ZM112.927 32.6206H114.332V44.3623H112.927V32.6206Z" fill="white"/>
<path d="M124.856 50.0984C124.222 50.1004 123.589 50.0237 122.973 49.87C122.349 49.7087 121.753 49.4506 121.208 49.105C120.566 48.6944 119.965 48.2218 119.414 47.6938L120.252 46.7325C121.109 47.5538 121.905 48.1094 122.64 48.3994C123.323 48.6789 124.054 48.8265 124.792 48.8344C126.004 48.8344 126.971 48.6392 127.693 48.2487C128.366 47.9091 128.914 47.3633 129.257 46.6903C129.583 46.0107 129.757 45.2674 129.765 44.513L129.796 40.6984L130.125 41.0592C129.726 42.1005 129.013 42.9514 127.987 43.6121C126.947 44.2763 125.736 44.6207 124.503 44.6032C123.444 44.6137 122.404 44.3274 121.498 43.7765C120.597 43.2356 119.849 42.4724 119.325 41.5593C118.783 40.6147 118.504 39.5413 118.518 38.4515C118.518 37.2336 118.797 36.1626 119.355 35.2386C119.907 34.3227 120.692 33.5711 121.629 33.0613C122.599 32.5257 123.69 32.2504 124.797 32.2621C125.877 32.2614 126.937 32.5516 127.867 33.1024C128.835 33.6626 129.538 34.4032 129.976 35.3242L129.796 35.9853L129.945 32.6217H131.195V44.5426C131.199 45.4868 130.979 46.4182 130.553 47.26C130.123 48.111 129.445 48.796 128.519 49.3151C127.593 49.8342 126.372 50.0953 124.856 50.0984ZM119.923 38.4161C119.911 39.2978 120.139 40.166 120.581 40.9279C121.012 41.6707 121.624 42.2909 122.36 42.7296C123.115 43.1826 123.981 43.4165 124.861 43.4055C125.693 43.4153 126.514 43.2139 127.248 42.8198C127.952 42.4411 128.556 41.9008 129.013 41.243C129.459 40.6156 129.727 39.8786 129.79 39.1102V37.3657C129.641 36.6289 129.318 35.939 128.848 35.3539C128.378 34.7714 127.786 34.2998 127.114 33.9724C126.368 33.6171 125.549 33.4429 124.723 33.4637C123.897 33.4845 123.088 33.6998 122.36 34.0923C121.622 34.5024 121.008 35.1042 120.581 35.8346C120.131 36.6185 119.903 37.5113 119.923 38.4161Z" fill="white"/>
<path d="M140.196 44.6935C139.098 44.6935 138.221 44.3682 137.564 43.7174C136.907 43.0666 136.558 42.2205 136.517 41.1793V32.6162H137.923V40.7602C137.963 41.5214 138.207 42.152 138.655 42.6521C139.104 43.1522 139.777 43.4224 140.673 43.4628C141.423 43.4653 142.158 43.2573 142.797 42.8622C143.457 42.459 144.007 41.8966 144.396 41.2261C144.811 40.5111 145.023 39.6957 145.009 38.8684V32.6208H146.414V44.3624H145.164L145.013 40.6689L145.223 41.4795C145.008 42.1047 144.643 42.667 144.161 43.1168C143.642 43.6143 143.033 44.0066 142.367 44.2722C141.678 44.5538 140.94 44.6969 140.196 44.6935Z" fill="white"/>
<path d="M152.962 32.6206L153.111 36.3141L152.933 35.5937C153.265 34.5801 153.952 33.7216 154.865 33.1766C155.812 32.5863 156.906 32.279 158.02 32.2906C159.116 32.2906 160.003 32.616 160.681 33.2668C161.36 33.9176 161.708 34.7632 161.727 35.8037V44.3668H160.292V36.1931C160.272 35.4319 160.033 34.8013 159.575 34.3012C159.117 33.8011 158.447 33.5412 157.564 33.5214C156.799 33.5182 156.047 33.7149 155.381 34.0923C154.708 34.4687 154.146 35.0179 153.752 35.6839C153.333 36.4025 153.121 37.2238 153.14 38.0564V44.3622H151.733V32.6206H152.962Z" fill="white"/>
<path d="M166.746 28.2969C166.745 28.162 166.773 28.0285 166.83 27.9064C166.887 27.7842 166.971 27.6765 167.075 27.5913C167.27 27.4101 167.526 27.3084 167.792 27.3058C167.925 27.3034 168.056 27.3273 168.179 27.3763C168.302 27.4253 168.415 27.4984 168.509 27.5913C168.606 27.6809 168.683 27.7901 168.734 27.9118C168.786 28.0334 168.811 28.1647 168.808 28.2969C168.813 28.4337 168.789 28.5701 168.738 28.6968C168.686 28.8236 168.608 28.9379 168.509 29.0322C168.415 29.1251 168.302 29.1981 168.179 29.2471C168.056 29.2961 167.925 29.3201 167.792 29.3176C167.523 29.3141 167.266 29.2065 167.075 29.0173C166.971 28.9286 166.888 28.8181 166.831 28.6937C166.774 28.5692 166.745 28.4338 166.746 28.2969ZM167.045 32.6206H168.45V44.3623H167.045V32.6206Z" fill="white"/>
<path d="M174.938 27.4556H176.373V32.7681H179.991V33.9098H176.373V44.3602H174.938V33.9098H172.456V32.7681H174.938V27.4556Z" fill="white"/>
<path d="M187.198 44.4822L181.665 32.6206H183.256L188.304 43.7286L187.198 44.4822ZM184.566 50.0082L192.191 32.6206H193.566L186.031 50.0082H184.566Z" fill="white"/>
</svg>
